<svg xmlns="http://www.w3.org/2000/svg" width="20" height="20" fill="none" viewBox="0 0 20 20">
  <g clip-path="url(#a)">
    <path stroke="#C2CFE0" stroke-width="1.4" d="M2.5 11.533h14.167c.071 0 .133.062.133.134v5a.136.136 0 0 1-.133.133H2.5a.136.136 0 0 1-.133-.133v-5c0-.072.061-.134.133-.134Zm0-8.333h14.167c.071 0 .133.061.133.133v5a.137.137 0 0 1-.133.134H2.5a.136.136 0 0 1-.133-.134v-5c0-.071.061-.133.133-.133Z"/>
  </g>
  <defs>
    <clipPath id="a">
      <path fill="#fff" d="M0 0h20v20H0z"/>
    </clipPath>
  </defs>
</svg>
