<svg xmlns="http://www.w3.org/2000/svg" width="20" height="20" fill="none" viewBox="0 0 20 20">
  <g clip-path="url(#a)">
    <path fill="#C2CFE0" d="M5 8.334c-.917 0-1.667.75-1.667 1.666 0 .917.75 1.667 1.667 1.667s1.667-.75 1.667-1.667c0-.916-.75-1.666-1.667-1.666Zm10 0c-.917 0-1.667.75-1.667 1.666 0 .917.75 1.667 1.667 1.667s1.667-.75 1.667-1.667c0-.916-.75-1.666-1.667-1.666Zm-5 0c-.917 0-1.667.75-1.667 1.666 0 .917.75 1.667 1.667 1.667s1.667-.75 1.667-1.667c0-.916-.75-1.666-1.667-1.666Z"/>
  </g>
  <defs>
    <clipPath id="a">
      <path fill="#fff" d="M0 0h20v20H0z"/>
    </clipPath>
  </defs>
</svg>
